<?xml version="1.0" encoding="UTF-8"?>
<svg xmlns="http://www.w3.org/2000/svg" viewBox="0 0 308.07 36.25">
  <defs>
    <style>
      .cls-1 {
        fill: #a7d8dd;
      }

      .cls-2 {
        mix-blend-mode: multiply;
        opacity: .37;
      }

      .cls-3 {
        isolation: isolate;
      }

      .cls-4 {
        fill: #1d1e1b;
      }

      .cls-5 {
        fill: #f7be29;
      }
    </style>
  </defs>
  <g class="cls-3">
    <g id="Layer_2" data-name="Layer 2">
      <g id="OBJECTS">
        <g>
          <g>
            <path class="cls-5" d="M11.88,16.89c-.49.69-1.15,1.29-1.89,1.66.1-2.19.09-4.39.2-6.58,0-.17-.05-.3-.13-.39.06,0,.11,0,.17,0-.08.2-.03.45.24.53.55.15.97.37,1.3.63-.01.04-.03.08-.03.13,0,1.33.03,2.68.13,4.01Z"/>
            <path class="cls-5" d="M8,19.04c.25-2.06-.03-4.2-.58-6.21-.02-.38-.03-.76-.04-1.14,0-.09-.04-.16-.08-.2.63-.01,1.27,0,1.9.03-.13.1-.23.25-.25.45-.23,2.28-.31,4.66,0,6.94-.3.06-.63.1-.96.13Z"/>
            <path class="cls-5" d="M7.27,19.08c-.49,0-.99-.03-1.49-.11.04-2.28,0-4.72-.2-6.99-.01-.16-.09-.29-.2-.39.13-.01.26-.03.39-.04.31-.03.63-.04.95-.04-.01.01-.01.04-.02.06-.26,0-.52.22-.42.55.25.87.43,1.75.59,2.63.07,1.45.15,2.89.4,4.32Z"/>
            <path class="cls-5" d="M2.39,14.94c.04.35.5.35.54,0,.03-.3.08-.59.08-.89,0-.45-.71-.45-.71,0,0,.3.05.59.08.89ZM2.43,17.73c-1.69-1.23-1.83-3.13-.35-4.7.71-.75,1.52-1.11,2.45-1.3-.01.04-.04.06-.04.11-.36,2.18-.2,4.79.38,6.96-.91-.22-1.76-.57-2.43-1.06Z"/>
            <path class="cls-1" d="M13,12.63c-.08.01-.15.05-.2.09-.26-.35-.59-.66-.99-.9,1.6-1.81,2.02-4.16,1.53-6.23,1.46.47,2.71,1.59,2.85,3.22.16,1.91-1.31,3.58-3.19,3.83Z"/>
            <path class="cls-1" d="M5.57,10.65c-2.03-.68-2.4-3.22-2.4-5.06,0-3.17,2.45-4.99,5.44-4.18,4.57,1.23,5.79,6.72,2.73,10.08-.02.01-.02.04-.04.05,0-.02-.01-.05-.04-.06-1.67-.47-3.75-.92-5.7-.83Z"/>
            <path class="cls-4" d="M2.92,14.94c-.04.35-.5.35-.54,0-.04-.3-.08-.59-.08-.89,0-.45.71-.45.71,0,0,.3-.06.59-.08.89Z"/>
            <path class="cls-4" d="M13.34,5.58c.49,2.07.07,4.42-1.53,6.23.39.24.73.55.99.9.05-.04.11-.08.2-.09,1.88-.25,3.36-1.92,3.19-3.83-.13-1.63-1.39-2.75-2.85-3.22ZM13.91,15.5c-.13-.04-.26-.07-.39-.11-.01.12-.03.23-.05.35.03-.03.06-.05.12-.06.33-.03.67-.05,1.01-.08-.09-.01-.18-.04-.27-.05-.12.07-.28.08-.42-.05ZM10.2,11.97c-.11,2.19-.11,4.39-.2,6.58.74-.37,1.4-.97,1.89-1.66-.1-1.33-.13-2.68-.13-4.01,0-.05.01-.08.03-.13-.33-.26-.75-.48-1.3-.63-.27-.08-.32-.33-.24-.53-.06,0-.11,0-.17,0,.08.09.13.22.13.39ZM7.42,12.83c.55,2.01.83,4.15.58,6.21.33-.03.66-.06.96-.13-.3-2.28-.23-4.66,0-6.94.02-.2.12-.35.25-.45-.63-.03-1.27-.04-1.9-.03.04.05.08.11.08.2,0,.37.01.75.04,1.14ZM6.72,11.52c-.32,0-.64.01-.95.04-.13,0-.27.02-.39.04.11.1.19.23.2.39.2,2.27.24,4.71.2,6.99.49.08.99.11,1.49.11-.25-1.42-.33-2.87-.4-4.32-.16-.88-.34-1.76-.59-2.63-.1-.33.16-.54.42-.55,0-.02,0-.05.02-.06ZM3.17,5.59c0,1.85.37,4.39,2.4,5.06,1.95-.09,4.03.36,5.7.83.03,0,.04.04.04.06.01-.01.01-.04.04-.05,3.06-3.36,1.84-8.86-2.73-10.08-3-.8-5.44,1.02-5.44,4.18ZM2.08,13.03c-1.47,1.57-1.34,3.47.35,4.7.68.49,1.52.85,2.43,1.06-.58-2.17-.74-4.78-.38-6.96,0-.04.03-.07.04-.11-.92.19-1.74.55-2.45,1.3ZM3.18,19.21C.45,18.07-1.15,15.19,1,12.65c.99-1.17,2.33-1.73,3.79-1.93-1.85-.9-2.22-3.55-2.18-5.47.06-2.59,1.52-4.47,4.2-4.6,3.34-.17,5.66,1.95,6.44,4.59,1.88.2,3.46,1.8,3.58,3.72.15,2.19-1.59,4.03-3.69,4.34.2.42.33.87.37,1.35.24-.01.44.04.63.15.92.2,1.84.39,2.76.63.34.08.26.6-.08.59-1.08-.02-2.16.04-3.24.04-.09,0-.13-.05-.16-.11-.13.56-.37,1.11-.74,1.61-2.09,2.84-6.52,2.9-9.51,1.65Z"/>
          </g>
          <g class="cls-2">
            <path class="cls-5" d="M11.88,16.89c-.49.69-1.15,1.29-1.89,1.66.1-2.19.09-4.39.2-6.58,0-.17-.05-.3-.13-.39.06,0,.11,0,.17,0-.08.2-.03.45.24.53.55.15.97.37,1.3.63-.01.04-.03.08-.03.13,0,1.33.03,2.68.13,4.01Z"/>
            <path class="cls-5" d="M8,19.04c.25-2.06-.03-4.2-.58-6.21-.02-.38-.03-.76-.04-1.14,0-.09-.04-.16-.08-.2.63-.01,1.27,0,1.9.03-.13.1-.23.25-.25.45-.23,2.28-.31,4.66,0,6.94-.3.06-.63.1-.96.13Z"/>
            <path class="cls-5" d="M7.27,19.08c-.49,0-.99-.03-1.49-.11.04-2.28,0-4.72-.2-6.99-.01-.16-.09-.29-.2-.39.13-.01.26-.03.39-.04.31-.03.63-.04.95-.04-.01.01-.01.04-.02.06-.26,0-.52.22-.42.55.25.87.43,1.75.59,2.63.07,1.45.15,2.89.4,4.32Z"/>
            <path class="cls-5" d="M2.39,14.94c.04.35.5.35.54,0,.03-.3.08-.59.08-.89,0-.45-.71-.45-.71,0,0,.3.05.59.08.89ZM2.43,17.73c-1.69-1.23-1.83-3.13-.35-4.7.71-.75,1.52-1.11,2.45-1.3-.01.04-.04.06-.04.11-.36,2.18-.2,4.79.38,6.96-.91-.22-1.76-.57-2.43-1.06Z"/>
            <path class="cls-1" d="M13,12.63c-.08.01-.15.05-.2.09-.26-.35-.59-.66-.99-.9,1.6-1.81,2.02-4.16,1.53-6.23,1.46.47,2.71,1.59,2.85,3.22.16,1.91-1.31,3.58-3.19,3.83Z"/>
            <path class="cls-1" d="M5.57,10.65c-2.03-.68-2.4-3.22-2.4-5.06,0-3.17,2.45-4.99,5.44-4.18,4.57,1.23,5.79,6.72,2.73,10.08-.02.01-.02.04-.04.05,0-.02-.01-.05-.04-.06-1.67-.47-3.75-.92-5.7-.83Z"/>
            <path class="cls-4" d="M2.92,14.94c-.04.35-.5.35-.54,0-.04-.3-.08-.59-.08-.89,0-.45.71-.45.71,0,0,.3-.06.59-.08.89Z"/>
            <path class="cls-4" d="M13.34,5.58c.49,2.07.07,4.42-1.53,6.23.39.24.73.55.99.9.05-.04.11-.08.2-.09,1.88-.25,3.36-1.92,3.19-3.83-.13-1.63-1.39-2.75-2.85-3.22ZM13.91,15.5c-.13-.04-.26-.07-.39-.11-.01.12-.03.23-.05.35.03-.03.06-.05.12-.06.33-.03.67-.05,1.01-.08-.09-.01-.18-.04-.27-.05-.12.07-.28.08-.42-.05ZM10.2,11.97c-.11,2.19-.11,4.39-.2,6.58.74-.37,1.4-.97,1.89-1.66-.1-1.33-.13-2.68-.13-4.01,0-.05.01-.08.03-.13-.33-.26-.75-.48-1.3-.63-.27-.08-.32-.33-.24-.53-.06,0-.11,0-.17,0,.08.09.13.22.13.39ZM7.42,12.83c.55,2.01.83,4.15.58,6.21.33-.03.66-.06.96-.13-.3-2.28-.23-4.66,0-6.94.02-.2.12-.35.25-.45-.63-.03-1.27-.04-1.9-.03.04.05.08.11.08.2,0,.37.01.75.04,1.14ZM6.72,11.52c-.32,0-.64.01-.95.04-.13,0-.27.02-.39.04.11.1.19.23.2.39.2,2.27.24,4.71.2,6.99.49.08.99.11,1.49.11-.25-1.42-.33-2.87-.4-4.32-.16-.88-.34-1.76-.59-2.63-.1-.33.16-.54.42-.55,0-.02,0-.05.02-.06ZM3.17,5.59c0,1.85.37,4.39,2.4,5.06,1.95-.09,4.03.36,5.7.83.03,0,.04.04.04.06.01-.01.01-.04.04-.05,3.06-3.36,1.84-8.86-2.73-10.08-3-.8-5.44,1.02-5.44,4.18ZM2.08,13.03c-1.47,1.57-1.34,3.47.35,4.7.68.49,1.52.85,2.43,1.06-.58-2.17-.74-4.78-.38-6.96,0-.04.03-.07.04-.11-.92.19-1.74.55-2.45,1.3ZM3.18,19.21C.45,18.07-1.15,15.19,1,12.65c.99-1.17,2.33-1.73,3.79-1.93-1.85-.9-2.22-3.55-2.18-5.47.06-2.59,1.52-4.47,4.2-4.6,3.34-.17,5.66,1.95,6.44,4.59,1.88.2,3.46,1.8,3.58,3.72.15,2.19-1.59,4.03-3.69,4.34.2.42.33.87.37,1.35.24-.01.44.04.63.15.92.2,1.84.39,2.76.63.34.08.26.6-.08.59-1.08-.02-2.16.04-3.24.04-.09,0-.13-.05-.16-.11-.13.56-.37,1.11-.74,1.61-2.09,2.84-6.52,2.9-9.51,1.65Z"/>
          </g>
        </g>
        <path class="cls-4" d="M307.38,5.24c-7.39,11.9-22.72,10.58-34.09,6.2C262.06,7.12,251.17-.2,238.7,0c-20.25.33-32.57,20.19-48.89,29.13-11.03,6.03-28.42,9.86-40.03,3.21-2.1-1.2-3.89-2.82-5.18-4.77,3.57-1.18,6.59-3.38,8.22-7,3.15-7-4.86-11.01-9.32-5.15-3.12,4.1-2.43,8.2,0,11.63-3.19.89-6.57,1.15-9.04.98-6.01-.41-11.82-2.71-16.77-6.07-4.44-3.01-8.44-6.93-13.5-8.93-7.14-2.82-12.93.38-18.41,4.93-4.34,3.61-8.89,8.31-14.95,8.34-6.38.03-11.14-5.13-15.77-8.8-8.22-6.5-15.9-6.49-24.42-.2-.1.07,0,.24.1.16,7.14-5.12,14.67-6.39,22.04-1.19,4.39,3.1,8.17,7.51,13.3,9.48,9.66,3.71,16.25-5.21,23.3-10.1,13.92-9.65,23.94,6.42,36.18,10.99,5.09,1.9,12.48,2.86,18.47,1.09,3.16,3.96,8.56,6.9,12.75,7.71,12.75,2.47,26.6-1.06,37.33-8.1,10.63-6.97,19.06-17.09,30.47-22.9,18.24-9.3,33.92,2.74,50.92,8.57,11.2,3.84,25.57,3.76,32.52-7.43.25-.4-.38-.77-.63-.37ZM142.64,22.49c-.35-2.56-.11-5.07,1.75-7.14,2.6-2.9,8.57-1.33,8.37,2.83-.22,4.6-4.15,7.3-8.63,8.69-.76-1.33-1.28-2.79-1.5-4.38Z"/>
      </g>
    </g>
  </g>
</svg>