<?xml version="1.0" encoding="UTF-8"?>
<svg xmlns="http://www.w3.org/2000/svg" viewBox="0 0 118.7 45.01">
  <defs>
    <style>
      .cls-1 {
        fill: #a7d8dd;
      }

      .cls-2 {
        fill: #fff;
      }

      .cls-3 {
        mix-blend-mode: multiply;
        opacity: .37;
      }

      .cls-4 {
        isolation: isolate;
      }

      .cls-5 {
        fill: #1d1e1b;
      }
    </style>
  </defs>
  <g class="cls-4">
    <g id="Layer_2" data-name="Layer 2">
      <g id="OBJECTS">
        <g>
          <g>
            <path class="cls-2" d="M88.73,31.23c.1.18.36.28.58.1,2.93-2.43,7.13-3.09,10.37-.81,3.06,2.17,3.31,5.28,3.3,8.69,0,.45.71.72.91.25.07-.17.12-.33.18-.5.08.05.19.07.29-.01,2.2-1.59,4.8-2.69,7.56-2.61,1.44.04,2.97.33,4.14,1.24,1.69,1.33,2.15,3.78.38,5.31,0,.01,0,.01,0,.02-19.11-.31-38.26.24-57.38.42-19.12.18-38.28.07-57.4.7h-.02c.05-.05.07-.13.07-.22-.16-2.48-1.45-6.47.77-8.36,2.36-2,5.57-.37,7.97.62.55.23.92-.68.4-.96-.1-.06-.21-.11-.31-.17-1.7-6.49-.43-13.64,6.34-16.6,6.83-2.98,13.42,1.11,15.87,7.67.22.61,1.16.38.99-.27-.04-.15-.1-.28-.14-.42C36.27,10.82,48.8,1.02,63.57,1.28c13.64.24,36.22,13.48,24,29.4-.43.57.54,1.32.99.77.06-.08.11-.15.17-.22Z"/>
            <path class="cls-5" d="M10.44,36.07c-2.4-.99-5.61-2.62-7.97-.62-2.22,1.89-.93,5.88-.77,8.36,0,.09-.02.17-.07.22h.02c19.12-.63,38.28-.52,57.4-.7,19.12-.18,38.27-.73,57.38-.42,0,0,0,0,0-.02,1.77-1.53,1.31-3.98-.38-5.31-1.17-.91-2.7-1.2-4.14-1.24-2.76-.08-5.36,1.02-7.56,2.61-.1.08-.21.06-.29.01-.06.17-.11.33-.18.5-.2.47-.91.2-.91-.25,0-3.41-.24-6.52-3.3-8.69-3.24-2.28-7.44-1.62-10.37.81-.22.18-.48.08-.58-.1-.06.07-.11.14-.17.22-.45.55-1.42-.2-.99-.77C99.79,14.76,77.21,1.52,63.57,1.28c-14.77-.26-27.3,9.54-29.98,24.04.04.14.1.27.14.42.17.65-.77.88-.99.27-2.45-6.56-9.04-10.65-15.87-7.67-6.77,2.96-8.04,10.11-6.34,16.6.1.06.21.11.31.17.52.28.15,1.19-.4.96ZM.96,43.91c-1.03-2.66-1.78-7.35.78-9.4,2.33-1.87,5.36-1.16,7.88-.01-2.32-6.96.06-14.84,7.45-17.58,6.35-2.36,13.26.87,15.93,6.81C35.6,7.96,51.58-1.61,67.08.22c8.14.96,16.78,4.65,21.64,11.51,3.92,5.52,4.5,12.84.78,18.44,2.92-2.43,7.22-2.93,10.53-.87,2.82,1.76,4.89,5.6,4.22,8.97,3.01-2.68,7.74-4.07,11.53-2.18,2.89,1.44,4.21,5.47,1.25,7.56-.03.02-.06.02-.08.03-.07.19-.23.33-.49.34-19.11.65-38.28.43-57.41.58-19.12.16-38.28.6-57.4.31-.43,0-.53-.5-.3-.75-.16,0-.33-.09-.39-.25Z"/>
          </g>
          <g class="cls-3">
            <path class="cls-1" d="M89.45,31.85c2.68-1.03,5.47-1.79,8.22-2.33-2.81-.93-5.94-.15-8.29,1.77.02.19.05.38.07.57Z"/>
            <path class="cls-1" d="M23.85,33.12c4.26-2.29,8.61-2.37,12.55-1,1.17-1.48,2.92-2.46,5.18-2.45,5.93-11.91,15.38-22.55,28.67-21.17,11.63,1.21,16.89,9.97,18.72,20.08C97.78,13.62,76.6,1.51,63.57,1.28c-14.77-.26-27.3,9.54-29.98,24.04.04.14.1.27.14.42.17.65-.77.88-.99.27-2.45-6.56-9.04-10.65-15.87-7.67-6.77,2.96-8.04,10.11-6.34,16.6.1.06.21.11.31.17.52.28.15,1.19-.4.96-2.4-.99-5.61-2.62-7.97-.62-2.22,1.89-.93,5.88-.77,8.36,0,.09-.02.17-.07.22h.02c5.09-.17,10.18-.28,15.28-.36.23-4.16,2.38-8.1,6.93-10.55Z"/>
            <path class="cls-1" d="M16.92,43.67c-5.09.08-10.19.2-15.28.36h-.02c.05-.05.07-.13.07-.22-.16-2.48-1.45-6.47.77-8.36,2.36-2,5.57-.37,7.97.62.55.23.92-.68.4-.96-.1-.06-.21-.11-.31-.17-1.7-6.49-.43-13.64,6.34-16.6,6.83-2.98,13.42,1.11,15.87,7.67.22.61,1.16.38.99-.27-.04-.15-.1-.28-.14-.42C36.27,10.82,48.8,1.02,63.57,1.28c13.03.23,34.21,12.33,25.4,27.3.16.89.3,1.79.41,2.7,2.35-1.91,5.48-2.69,8.29-1.77.7-.14,1.39-.26,2.08-.37-3.27-1.87-7.41-1.34-10.26,1.02,3.72-5.6,3.14-12.92-.78-18.44-4.86-6.86-13.5-10.55-21.64-11.51-15.5-1.83-31.48,7.74-34.08,23.51-2.67-5.94-9.58-9.17-15.93-6.81-7.39,2.74-9.77,10.62-7.45,17.58-2.52-1.15-5.55-1.86-7.88.01-2.56,2.05-1.81,6.74-.78,9.4.06.16.23.25.39.25-.23.25-.13.74.3.75,5.09.08,10.17.1,15.26.09-.02-.45-.01-.89.01-1.34Z"/>
          </g>
        </g>
      </g>
    </g>
  </g>
</svg>