<?xml version="1.0" encoding="UTF-8"?>
<svg xmlns="http://www.w3.org/2000/svg" viewBox="0 0 595.37 301.81">
  <defs>
    <style>
      .cls-1 {
        fill: #a7d8dd;
      }

      .cls-2 {
        fill: #fff;
      }

      .cls-3 {
        mix-blend-mode: multiply;
        opacity: .37;
      }

      .cls-4 {
        isolation: isolate;
      }

      .cls-5 {
        fill: #1d1e1b;
      }
    </style>
  </defs>
  <g class="cls-4">
    <g id="Layer_2" data-name="Layer 2">
      <g id="OBJECTS">
        <g>
          <g>
            <path class="cls-2" d="M213.87,158.12c.1.18.36.28.58.1,2.93-2.43,7.13-3.09,10.37-.81,3.06,2.17,3.31,5.28,3.3,8.69,0,.45.71.72.91.25.07-.17.12-.33.18-.5.08.05.19.07.29-.01,2.2-1.59,4.8-2.69,7.56-2.61,1.44.04,2.97.33,4.14,1.24,1.69,1.33,2.15,3.78.38,5.31,0,.01,0,.01,0,.02-19.11-.31-38.26.24-57.38.42s-38.28.07-57.4.7h-.02c.05-.05.07-.13.07-.22-.16-2.48-1.45-6.47.77-8.36,2.36-2,5.57-.37,7.97.62.55.23.92-.68.4-.96-.1-.06-.21-.11-.31-.17-1.7-6.49-.43-13.64,6.34-16.6,6.83-2.98,13.42,1.11,15.87,7.67.22.61,1.16.38.99-.27-.04-.15-.1-.28-.14-.42,2.68-14.5,15.21-24.3,29.98-24.04,13.64.24,36.22,13.48,24,29.4-.43.57.54,1.32.99.77.06-.08.11-.15.17-.22Z"/>
            <path class="cls-5" d="M135.58,162.96c-2.4-.99-5.61-2.62-7.97-.62-2.22,1.89-.93,5.88-.77,8.36,0,.09-.02.17-.07.22h.02c19.12-.63,38.28-.52,57.4-.7s38.27-.73,57.38-.42c0-.01,0-.01,0-.02,1.77-1.53,1.31-3.98-.38-5.31-1.17-.91-2.7-1.2-4.14-1.24-2.76-.08-5.36,1.02-7.56,2.61-.1.08-.21.06-.29.01-.06.17-.11.33-.18.5-.2.47-.91.2-.91-.25,0-3.41-.24-6.52-3.3-8.69-3.24-2.28-7.44-1.62-10.37.81-.22.18-.48.08-.58-.1-.06.07-.11.14-.17.22-.45.55-1.42-.2-.99-.77,12.22-15.92-10.36-29.16-24-29.4-14.77-.26-27.3,9.54-29.98,24.04.04.14.1.27.14.42.17.65-.77.88-.99.27-2.45-6.56-9.04-10.65-15.87-7.67-6.77,2.96-8.04,10.11-6.34,16.6.1.06.21.11.31.17.52.28.15,1.19-.4.96ZM126.1,170.8c-1.03-2.66-1.78-7.35.78-9.4,2.33-1.87,5.36-1.16,7.88-.01-2.32-6.96.06-14.84,7.45-17.58,6.35-2.36,13.26.87,15.93,6.81,2.6-15.77,18.58-25.34,34.08-23.51,8.14.96,16.78,4.65,21.64,11.51,3.92,5.52,4.5,12.84.78,18.44,2.92-2.43,7.22-2.93,10.53-.87,2.82,1.76,4.89,5.6,4.22,8.97,3.01-2.68,7.74-4.07,11.53-2.18,2.89,1.44,4.21,5.47,1.25,7.56-.03.02-.06.02-.08.03-.07.19-.23.33-.49.34-19.11.65-38.28.43-57.41.58-19.12.16-38.28.6-57.4.31-.43-.01-.53-.5-.3-.75-.16,0-.33-.09-.39-.25Z"/>
          </g>
          <g class="cls-3">
            <path class="cls-1" d="M214.6,158.73c2.68-1.03,5.47-1.79,8.22-2.33-2.81-.93-5.94-.15-8.29,1.77.02.19.05.38.07.57Z"/>
            <path class="cls-1" d="M149,160c4.26-2.29,8.61-2.37,12.55-1,1.17-1.48,2.92-2.46,5.18-2.45,5.93-11.91,15.38-22.55,28.67-21.17,11.63,1.21,16.89,9.97,18.72,20.08,8.81-14.97-12.37-27.07-25.4-27.3-14.77-.26-27.3,9.54-29.98,24.04.04.14.1.27.14.42.17.65-.77.88-.99.27-2.45-6.56-9.04-10.65-15.87-7.67-6.77,2.96-8.04,10.11-6.34,16.6.1.06.21.11.31.17.52.28.15,1.19-.4.96-2.4-.99-5.61-2.62-7.97-.62-2.22,1.89-.93,5.88-.77,8.36,0,.09-.02.17-.07.22h.02c5.09-.17,10.18-.28,15.28-.36.23-4.16,2.38-8.1,6.93-10.55Z"/>
            <path class="cls-1" d="M142.07,170.55c-5.09.08-10.19.2-15.28.36h-.02s.07-.13.07-.22c-.16-2.48-1.45-6.47.77-8.36,2.36-2,5.57-.37,7.97.62.55.23.92-.68.4-.96-.1-.06-.21-.11-.31-.17-1.7-6.49-.43-13.64,6.34-16.6,6.83-2.98,13.42,1.11,15.87,7.67.22.61,1.16.38.99-.27-.04-.15-.1-.28-.14-.42,2.68-14.5,15.21-24.3,29.98-24.04,13.03.23,34.21,12.33,25.4,27.3.16.89.3,1.79.41,2.7,2.35-1.91,5.48-2.69,8.29-1.77.7-.14,1.39-.26,2.08-.37-3.27-1.87-7.41-1.34-10.26,1.02,3.72-5.6,3.14-12.92-.78-18.44-4.86-6.86-13.5-10.55-21.64-11.51-15.5-1.83-31.48,7.74-34.08,23.51-2.67-5.94-9.58-9.17-15.93-6.81-7.39,2.74-9.77,10.62-7.45,17.58-2.52-1.15-5.55-1.86-7.88.01-2.56,2.05-1.81,6.74-.78,9.4.06.16.23.25.39.25-.23.25-.13.74.3.75,5.09.08,10.17.1,15.26.09-.02-.45-.01-.89.01-1.34Z"/>
          </g>
        </g>
        <g>
          <g>
            <path class="cls-2" d="M494.13,31.23c-.1.18-.36.28-.58.1-2.93-2.43-7.13-3.09-10.37-.81-3.06,2.17-3.31,5.28-3.3,8.69,0,.45-.71.72-.91.25-.07-.17-.12-.33-.18-.5-.08.05-.19.07-.29-.01-2.2-1.59-4.8-2.69-7.56-2.61-1.44.04-2.97.33-4.14,1.24-1.69,1.33-2.15,3.78-.38,5.31,0,.01,0,.01,0,.02,19.11-.31,38.26.24,57.38.42s38.28.07,57.4.7h.02s-.07-.13-.07-.22c.16-2.48,1.45-6.47-.77-8.36-2.36-2-5.57-.37-7.97.62-.55.23-.92-.68-.4-.96.1-.06.21-.11.31-.17,1.7-6.49.43-13.64-6.34-16.6-6.83-2.98-13.42,1.11-15.87,7.67-.22.61-1.16.38-.99-.27.04-.15.1-.28.14-.42-2.68-14.5-15.21-24.3-29.98-24.04-13.64.24-36.22,13.48-24,29.4.43.57-.54,1.32-.99.77-.06-.08-.11-.15-.17-.22Z"/>
            <path class="cls-5" d="M572.02,35.11c.1-.06.21-.11.31-.17,1.7-6.49.43-13.64-6.34-16.6-6.83-2.98-13.42,1.11-15.87,7.67-.22.61-1.16.38-.99-.27.04-.15.1-.28.14-.42-2.68-14.5-15.21-24.3-29.98-24.04-13.64.24-36.22,13.48-24,29.4.43.57-.54,1.32-.99.77-.06-.08-.11-.15-.17-.22-.1.18-.36.28-.58.1-2.93-2.43-7.13-3.09-10.37-.81-3.06,2.17-3.31,5.28-3.3,8.69,0,.45-.71.72-.91.25-.07-.17-.12-.33-.18-.5-.08.05-.19.07-.29-.01-2.2-1.59-4.8-2.69-7.56-2.61-1.44.04-2.97.33-4.14,1.24-1.69,1.33-2.15,3.78-.38,5.31,0,.01,0,.01,0,.02,19.11-.31,38.26.24,57.38.42s38.28.07,57.4.7h.02s-.07-.13-.07-.22c.16-2.48,1.45-6.47-.77-8.36-2.36-2-5.57-.37-7.97.62-.55.23-.92-.68-.4-.96ZM581.51,44.16c.23.25.13.74-.3.75-19.12.29-38.28-.15-57.4-.31-19.13-.15-38.3.07-57.41-.58-.26,0-.42-.15-.49-.34-.02,0-.05,0-.08-.03-2.96-2.09-1.64-6.12,1.25-7.56,3.79-1.89,8.52-.5,11.53,2.18-.67-3.37,1.4-7.21,4.22-8.97,3.31-2.06,7.61-1.56,10.53.87-3.72-5.6-3.14-12.92.78-18.44,4.86-6.86,13.5-10.55,21.64-11.51,15.5-1.83,31.48,7.74,34.08,23.51,2.67-5.94,9.58-9.17,15.93-6.81,7.39,2.74,9.77,10.62,7.45,17.58,2.52-1.15,5.55-1.86,7.88.01,2.56,2.05,1.81,6.74.78,9.4-.06.16-.23.25-.39.25Z"/>
          </g>
          <g class="cls-3">
            <path class="cls-1" d="M493.41,31.85c-2.68-1.03-5.47-1.79-8.22-2.33,2.81-.93,5.94-.15,8.29,1.77-.02.19-.05.38-.07.57Z"/>
            <path class="cls-1" d="M559.01,33.12c-4.26-2.29-8.61-2.37-12.55-1-1.17-1.48-2.92-2.46-5.18-2.45-5.93-11.91-15.38-22.55-28.67-21.17-11.63,1.21-16.89,9.97-18.72,20.08-8.81-14.97,12.37-27.07,25.4-27.3,14.77-.26,27.3,9.54,29.98,24.04-.04.14-.1.27-.14.42-.17.65.77.88.99.27,2.45-6.56,9.04-10.65,15.87-7.67,6.77,2.96,8.04,10.11,6.34,16.6-.1.06-.21.11-.31.17-.52.28-.15,1.19.4.96,2.4-.99,5.61-2.62,7.97-.62,2.22,1.89.93,5.88.77,8.36,0,.09.02.17.07.22h-.02c-5.09-.17-10.18-.28-15.28-.36-.23-4.16-2.38-8.1-6.93-10.55Z"/>
            <path class="cls-1" d="M565.94,43.67c5.09.08,10.19.2,15.28.36h.02c-.05-.05-.07-.13-.07-.22.16-2.48,1.45-6.47-.77-8.36-2.36-2-5.57-.37-7.97.62-.55.23-.92-.68-.4-.96.1-.06.21-.11.31-.17,1.7-6.49.43-13.64-6.34-16.6-6.83-2.98-13.42,1.11-15.87,7.67-.22.61-1.16.38-.99-.27.04-.15.1-.28.14-.42-2.68-14.5-15.21-24.3-29.98-24.04-13.03.23-34.21,12.33-25.4,27.3-.16.89-.3,1.79-.41,2.7-2.35-1.91-5.48-2.69-8.29-1.77-.7-.14-1.39-.26-2.08-.37,3.27-1.87,7.41-1.34,10.26,1.02-3.72-5.6-3.14-12.92.78-18.44,4.86-6.86,13.5-10.55,21.64-11.51,15.5-1.83,31.48,7.74,34.08,23.51,2.67-5.94,9.58-9.17,15.93-6.81,7.39,2.74,9.77,10.62,7.45,17.58,2.52-1.15,5.55-1.86,7.88.01,2.56,2.05,1.81,6.74.78,9.4-.06.16-.23.25-.39.25.23.25.13.74-.3.75-5.09.08-10.17.1-15.26.09.02-.45.01-.89-.01-1.34Z"/>
          </g>
        </g>
        <g>
          <g>
            <path class="cls-2" d="M565.4,251.33c.1.18.36.28.58.1,2.93-2.43,7.13-3.09,10.37-.81,3.06,2.17,3.31,5.28,3.3,8.69,0,.45.71.72.91.25.07-.17.12-.33.18-.5.08.05.19.07.29-.01,2.2-1.59,4.8-2.69,7.56-2.61,1.44.04,2.97.33,4.14,1.24,1.69,1.33,2.15,3.78.38,5.31,0,0-.01,0-.01.02-19.11-.31-38.26.24-57.38.42s-38.28.07-57.4.7h-.02c.05-.05.07-.13.07-.22-.16-2.48-1.45-6.47.77-8.36,2.36-2,5.57-.37,7.97.62.55.23.92-.68.4-.96-.1-.06-.21-.11-.31-.17-1.7-6.49-.43-13.64,6.34-16.6,6.83-2.98,13.42,1.11,15.87,7.67.22.61,1.16.38.99-.27-.04-.15-.1-.28-.14-.42,2.68-14.5,15.21-24.3,29.98-24.04,13.64.24,36.22,13.48,24,29.4-.43.57.54,1.32.99.77.06-.08.11-.15.17-.22Z"/>
            <path class="cls-5" d="M487.11,256.17c-2.4-.99-5.61-2.62-7.97-.62-2.22,1.89-.93,5.88-.77,8.36,0,.09-.02.17-.07.22h.02c19.12-.63,38.28-.52,57.4-.7s38.27-.73,57.38-.42c0-.01.01-.01.01-.02,1.77-1.53,1.31-3.98-.38-5.31-1.17-.91-2.7-1.2-4.14-1.24-2.76-.08-5.36,1.02-7.56,2.61-.1.08-.21.06-.29.01-.06.17-.11.33-.18.5-.2.47-.91.2-.91-.25.01-3.41-.24-6.52-3.3-8.69-3.24-2.28-7.44-1.62-10.37.81-.22.18-.48.08-.58-.1-.06.07-.11.14-.17.22-.45.55-1.42-.2-.99-.77,12.22-15.92-10.36-29.16-24-29.4-14.77-.26-27.3,9.54-29.98,24.04.04.14.1.27.14.42.17.65-.77.88-.99.27-2.45-6.56-9.04-10.65-15.87-7.67-6.77,2.96-8.04,10.11-6.34,16.6.1.06.21.11.31.17.52.28.15,1.19-.4.96ZM477.63,264.01c-1.03-2.66-1.78-7.35.78-9.4,2.33-1.87,5.36-1.16,7.88-.01-2.32-6.96.06-14.84,7.45-17.58,6.35-2.36,13.26.87,15.93,6.81,2.6-15.77,18.58-25.34,34.08-23.51,8.14.96,16.78,4.65,21.64,11.51,3.92,5.52,4.5,12.84.78,18.44,2.92-2.43,7.22-2.93,10.53-.87,2.82,1.76,4.89,5.6,4.22,8.97,3.01-2.68,7.74-4.07,11.53-2.18,2.89,1.44,4.21,5.47,1.25,7.56-.03.02-.06.02-.08.03-.07.19-.23.33-.49.34-19.11.65-38.28.43-57.41.58-19.12.16-38.28.6-57.4.31-.43-.01-.53-.5-.3-.75-.16,0-.33-.09-.39-.25Z"/>
          </g>
          <g class="cls-3">
            <path class="cls-1" d="M566.12,251.95c2.68-1.03,5.47-1.79,8.22-2.33-2.81-.93-5.94-.15-8.29,1.77.02.19.05.38.07.57Z"/>
            <path class="cls-1" d="M500.52,253.22c4.26-2.29,8.61-2.37,12.55-1,1.17-1.48,2.92-2.46,5.18-2.45,5.93-11.91,15.38-22.55,28.67-21.17,11.63,1.21,16.89,9.97,18.72,20.08,8.81-14.97-12.37-27.07-25.4-27.3-14.77-.26-27.3,9.54-29.98,24.04.04.14.1.27.14.42.17.65-.77.88-.99.27-2.45-6.56-9.04-10.65-15.87-7.67-6.77,2.96-8.04,10.11-6.34,16.6.1.06.21.11.31.17.52.28.15,1.19-.4.96-2.4-.99-5.61-2.62-7.97-.62-2.22,1.89-.93,5.88-.77,8.36,0,.09-.02.17-.07.22h.02c5.09-.17,10.18-.28,15.28-.36.23-4.16,2.38-8.1,6.93-10.55Z"/>
            <path class="cls-1" d="M493.59,263.77c-5.09.08-10.19.2-15.28.36h-.02c.05-.05.07-.13.07-.22-.16-2.48-1.45-6.47.77-8.36,2.36-2,5.57-.37,7.97.62.55.23.92-.68.4-.96-.1-.06-.21-.11-.31-.17-1.7-6.49-.43-13.64,6.34-16.6,6.83-2.98,13.42,1.11,15.87,7.67.22.61,1.16.38.99-.27-.04-.15-.1-.28-.14-.42,2.68-14.5,15.21-24.3,29.98-24.04,13.03.23,34.21,12.33,25.4,27.3.16.89.3,1.79.41,2.7,2.35-1.91,5.48-2.69,8.29-1.77.7-.14,1.39-.26,2.08-.37-3.27-1.87-7.41-1.34-10.26,1.02,3.72-5.6,3.14-12.92-.78-18.44-4.86-6.86-13.5-10.55-21.64-11.51-15.5-1.83-31.48,7.74-34.08,23.51-2.67-5.94-9.58-9.17-15.93-6.81-7.39,2.74-9.77,10.62-7.45,17.58-2.52-1.15-5.55-1.86-7.88,0-2.56,2.05-1.81,6.74-.78,9.4.06.16.23.25.39.25-.23.25-.13.74.3.75,5.09.08,10.17.1,15.26.09-.02-.45-.01-.89.01-1.34Z"/>
          </g>
        </g>
        <g>
          <g>
            <path class="cls-2" d="M88.73,72.46c.1.18.36.28.58.1,2.93-2.43,7.13-3.09,10.37-.81,3.06,2.17,3.31,5.28,3.3,8.69,0,.45.71.72.91.25.07-.17.12-.33.18-.5.08.05.19.07.29-.01,2.2-1.59,4.8-2.69,7.56-2.61,1.44.04,2.97.33,4.14,1.24,1.69,1.33,2.15,3.78.38,5.31,0,0,0,0,0,.02-19.11-.31-38.26.24-57.38.42-19.12.18-38.28.07-57.4.7h-.02c.05-.05.07-.13.07-.22-.16-2.48-1.45-6.47.77-8.36,2.36-2,5.57-.37,7.97.62.55.23.92-.68.4-.96-.1-.06-.21-.11-.31-.17-1.7-6.49-.43-13.64,6.34-16.6,6.83-2.98,13.42,1.11,15.87,7.67.22.61,1.16.38.99-.27-.04-.15-.1-.28-.14-.42,2.68-14.5,15.21-24.3,29.98-24.04,13.64.24,36.22,13.48,24,29.4-.43.57.54,1.32.99.77.06-.08.11-.15.17-.22Z"/>
            <path class="cls-5" d="M10.44,77.3c-2.4-.99-5.61-2.62-7.97-.62-2.22,1.89-.93,5.88-.77,8.36,0,.09-.02.17-.07.22h.02c19.12-.63,38.28-.52,57.4-.7,19.12-.18,38.27-.73,57.38-.42,0-.01,0-.01,0-.02,1.77-1.53,1.31-3.98-.38-5.31-1.17-.91-2.7-1.2-4.14-1.24-2.76-.08-5.36,1.02-7.56,2.61-.1.08-.21.06-.29.01-.06.17-.11.33-.18.5-.2.47-.91.2-.91-.25,0-3.41-.24-6.52-3.3-8.69-3.24-2.28-7.44-1.62-10.37.81-.22.18-.48.08-.58-.1-.06.07-.11.14-.17.22-.45.55-1.42-.2-.99-.77,12.22-15.92-10.36-29.16-24-29.4-14.77-.26-27.3,9.54-29.98,24.04.04.14.1.27.14.42.17.65-.77.88-.99.27-2.45-6.56-9.04-10.65-15.87-7.67-6.77,2.96-8.04,10.11-6.34,16.6.1.06.21.11.31.17.52.28.15,1.19-.4.96ZM.96,85.14c-1.03-2.66-1.78-7.35.78-9.4,2.33-1.87,5.36-1.16,7.88,0-2.32-6.96.06-14.84,7.45-17.58,6.35-2.36,13.26.87,15.93,6.81,2.6-15.77,18.58-25.34,34.08-23.51,8.14.96,16.78,4.65,21.64,11.51,3.92,5.52,4.5,12.84.78,18.44,2.92-2.43,7.22-2.93,10.53-.87,2.82,1.76,4.89,5.6,4.22,8.97,3.01-2.68,7.74-4.07,11.53-2.18,2.89,1.44,4.21,5.47,1.25,7.56-.03.02-.06.02-.08.03-.07.19-.23.33-.49.34-19.11.65-38.28.43-57.41.58-19.12.16-38.28.6-57.4.31-.43-.01-.53-.5-.3-.75-.16,0-.33-.09-.39-.25Z"/>
          </g>
          <g class="cls-3">
            <path class="cls-1" d="M89.45,73.07c2.68-1.03,5.47-1.79,8.22-2.33-2.81-.93-5.94-.14-8.29,1.77.02.19.05.38.07.57Z"/>
            <path class="cls-1" d="M23.85,74.34c4.26-2.29,8.61-2.37,12.55-1,1.17-1.48,2.92-2.46,5.18-2.45,5.93-11.91,15.38-22.55,28.67-21.17,11.63,1.21,16.89,9.97,18.72,20.08,8.81-14.97-12.37-27.07-25.4-27.3-14.77-.26-27.3,9.54-29.98,24.04.04.14.1.27.14.42.17.65-.77.88-.99.27-2.45-6.56-9.04-10.65-15.87-7.67-6.77,2.96-8.04,10.11-6.34,16.6.1.06.21.11.31.17.52.28.15,1.19-.4.96-2.4-.99-5.61-2.62-7.97-.62-2.22,1.89-.93,5.88-.77,8.36,0,.09-.02.17-.07.22h.02c5.09-.17,10.18-.28,15.28-.36.23-4.16,2.38-8.1,6.93-10.55Z"/>
            <path class="cls-1" d="M16.92,84.89c-5.09.08-10.19.2-15.28.36h-.02c.05-.05.07-.13.07-.22-.16-2.48-1.45-6.47.77-8.36,2.36-2,5.57-.37,7.97.62.55.23.92-.68.4-.96-.1-.06-.21-.11-.31-.17-1.7-6.49-.43-13.64,6.34-16.6,6.83-2.98,13.42,1.11,15.87,7.67.22.61,1.16.38.99-.27-.04-.15-.1-.28-.14-.42,2.68-14.5,15.21-24.3,29.98-24.04,13.03.23,34.21,12.33,25.4,27.3.16.89.3,1.79.41,2.7,2.35-1.91,5.48-2.69,8.29-1.77.7-.14,1.39-.26,2.08-.37-3.27-1.87-7.41-1.34-10.26,1.02,3.72-5.6,3.14-12.92-.78-18.44-4.86-6.86-13.5-10.55-21.64-11.51-15.5-1.83-31.48,7.74-34.08,23.51-2.67-5.94-9.58-9.17-15.93-6.81-7.39,2.74-9.77,10.62-7.45,17.58-2.52-1.15-5.55-1.86-7.88.01-2.56,2.05-1.81,6.74-.78,9.4.06.16.23.25.39.25-.23.25-.13.74.3.75,5.09.08,10.17.1,15.26.09-.02-.45-.01-.89.01-1.34Z"/>
          </g>
        </g>
        <g>
          <g>
            <path class="cls-2" d="M428.83,158.57c.14-.14.16-.39-.06-.52-1.37-.87-1.96-3.02-.79-4.31,1.12-1.25,3.34-.98,4.28.34.25.35.76.19.86-.12.13.04.3-.09.26-.25-.67-2.66-1.46-5.66-1-8.42.6-3.6,4.7-4.78,7.96-5.06,6.87-.6,13.06,3.87,13.36,11.03.03.72,1.15.72,1.12,0,0-.04,0-.08-.02-.13,1.66-3.1,6-4.6,8.8-1.98,1.29,1.2,1.94,3.01,1.89,4.76-.04,1.3-.9,2.38-1.07,3.56-11.77-.54-23.7-.46-35.4,1.06-.05.01-.09.03-.12.06l-.07-.02Z"/>
            <path class="cls-5" d="M428.42,158.64c-2.02-.96-2.63-3.91-1.11-5.57,1.46-1.6,4.06-1.36,5.43.18-1.24-2.98-2.51-7.54-.86-10.36,1.44-2.45,5.75-3.47,8.32-3.74,7.04-.75,13.37,3.82,14.47,10.67,1.56-2.74,5.38-3.88,8.27-2.43,1.85.92,3.07,2.75,3.5,4.74.17.81.21,1.65.12,2.47-.14,1.17-1.08,2.41-1.08,3.53,0,.56-.6.65-.91.36-11.89-.58-23.67-.17-35.55.38-.16.01-.2-.17-.12-.28.03-.03.07-.05.12-.06,11.7-1.52,23.63-1.6,35.4-1.06.17-1.18,1.03-2.26,1.07-3.56.05-1.75-.6-3.56-1.89-4.76-2.8-2.62-7.14-1.12-8.8,1.98,0,.05,0,.09.02.13.03.72-1.09.72-1.12,0-.3-7.16-6.49-11.63-13.36-11.03-3.26.28-7.36,1.46-7.96,5.06-.46,2.76.33,5.76,1,8.42.04.16-.13.29-.26.25-.1.31-.61.47-.86.12-.94-1.32-3.16-1.59-4.28-.34-1.17,1.29-.58,3.44.79,4.31.22.13.2.38.06.52-.09.1-.24.14-.41.07Z"/>
          </g>
          <g class="cls-3">
            <path class="cls-1" d="M447.24,141.45c-2.05-.99-4.43-1.43-6.9-1.22-3.26.28-7.36,1.46-7.96,5.06-.46,2.76.33,5.76,1,8.42.04.16-.13.29-.26.25-.1.31-.61.47-.86.12-.94-1.32-3.16-1.59-4.28-.34-1.17,1.29-.58,3.44.79,4.31.22.13.2.38.06.52l.07.02s.07-.05.12-.06c1.99-.26,3.99-.46,6-.64,1.76-6.74,6.24-12.92,12.22-16.44Z"/>
            <path class="cls-1" d="M428.77,158.05c-1.37-.87-1.96-3.02-.79-4.31,1.12-1.25,3.34-.98,4.28.34.25.35.76.19.86-.12.13.04.3-.09.26-.25-.67-2.66-1.46-5.66-1-8.42.6-3.6,4.7-4.78,7.96-5.06,2.47-.22,4.85.23,6.9,1.22.35-.21.7-.41,1.06-.6.02-.01.05-.02.07-.03-2.37-1.34-5.21-1.98-8.17-1.66-2.57.27-6.88,1.29-8.32,3.74-1.65,2.82-.38,7.38.86,10.36-1.37-1.54-3.97-1.78-5.43-.18-1.52,1.66-.91,4.61,1.11,5.57.17.07.32.03.41-.07.14-.14.16-.39-.06-.52Z"/>
            <path class="cls-1" d="M435.01,157.89c-2,.18-4.01.38-6,.64-.05.01-.09.03-.12.06-.08.11-.04.29.12.28,1.94-.09,3.88-.17,5.82-.25.06-.24.12-.49.18-.73Z"/>
          </g>
        </g>
        <g>
          <g>
            <path class="cls-2" d="M5.35,220.01c.14-.14.16-.39-.06-.52-1.37-.87-1.96-3.02-.79-4.31,1.12-1.25,3.34-.98,4.28.34.25.35.76.19.86-.12.13.04.3-.09.26-.25-.67-2.66-1.46-5.66-1-8.42.6-3.6,4.7-4.78,7.96-5.06,6.87-.6,13.06,3.87,13.36,11.03.03.72,1.15.72,1.12,0,0-.04,0-.08-.02-.13,1.66-3.1,6-4.6,8.8-1.98,1.29,1.2,1.94,3.01,1.89,4.76-.04,1.3-.9,2.38-1.07,3.56-11.77-.54-23.7-.46-35.4,1.06-.05.01-.09.03-.12.06l-.07-.02Z"/>
            <path class="cls-5" d="M4.94,220.08c-2.02-.96-2.63-3.91-1.11-5.57,1.46-1.6,4.06-1.36,5.43.18-1.24-2.98-2.51-7.54-.86-10.36,1.44-2.45,5.75-3.47,8.32-3.74,7.04-.75,13.37,3.82,14.47,10.67,1.56-2.74,5.38-3.88,8.27-2.43,1.85.92,3.07,2.75,3.5,4.74.17.81.21,1.65.12,2.47-.14,1.17-1.08,2.41-1.08,3.53,0,.56-.6.65-.91.36-11.89-.58-23.67-.17-35.55.38-.16.01-.2-.17-.12-.28.03-.03.07-.05.12-.06,11.7-1.52,23.63-1.6,35.4-1.06.17-1.18,1.03-2.26,1.07-3.56.05-1.75-.6-3.56-1.89-4.76-2.8-2.62-7.14-1.12-8.8,1.98.01.05.01.09.02.13.03.72-1.09.72-1.12,0-.3-7.16-6.49-11.63-13.36-11.03-3.26.28-7.36,1.46-7.96,5.06-.46,2.76.33,5.76,1,8.42.04.16-.13.29-.26.25-.1.31-.61.47-.86.12-.94-1.32-3.16-1.59-4.28-.34-1.17,1.29-.58,3.44.79,4.31.22.13.2.38.06.52-.09.1-.24.14-.41.07Z"/>
          </g>
          <g class="cls-3">
            <path class="cls-1" d="M23.76,202.89c-2.05-.99-4.43-1.43-6.9-1.22-3.26.28-7.36,1.46-7.96,5.06-.46,2.76.33,5.76,1,8.42.04.16-.13.29-.26.25-.1.31-.61.47-.86.12-.94-1.32-3.16-1.59-4.28-.34-1.17,1.29-.58,3.44.79,4.31.22.13.2.38.06.52l.07.02s.07-.05.12-.06c1.99-.26,3.99-.46,6-.64,1.76-6.74,6.24-12.92,12.22-16.44Z"/>
            <path class="cls-1" d="M5.29,219.49c-1.37-.87-1.96-3.02-.79-4.31,1.12-1.25,3.34-.98,4.28.34.25.35.76.19.86-.12.13.04.3-.09.26-.25-.67-2.66-1.46-5.66-1-8.42.6-3.6,4.7-4.78,7.96-5.06,2.47-.22,4.85.23,6.9,1.22.35-.21.7-.41,1.06-.6.02-.01.05-.02.07-.03-2.37-1.34-5.21-1.98-8.17-1.66-2.57.27-6.88,1.29-8.32,3.74-1.65,2.82-.38,7.38.86,10.36-1.37-1.54-3.97-1.78-5.43-.18-1.52,1.66-.91,4.61,1.11,5.57.17.07.32.03.41-.07.14-.14.16-.39-.06-.52Z"/>
            <path class="cls-1" d="M11.54,219.33c-2,.18-4.01.38-6,.64-.05.01-.09.03-.12.06-.08.11-.04.29.12.28,1.94-.09,3.88-.17,5.82-.25.06-.24.12-.49.18-.73Z"/>
          </g>
        </g>
        <g>
          <g>
            <path class="cls-2" d="M356.66,203.99c3.27,1.46,5.41,4.72,5.03,8.37-.35,3.29-2.68,5.56-5.13,7.49-.16.13-.22.27-.22.42-11.29.19-22.61.66-33.88,1.19-.06,0-.1.03-.14.06.13-.16.1-.43-.15-.53-1.17-.44-1.84-2.21-.93-3.21.93-1.01,2.4-.52,3.16.38.36.43.93-.12.73-.57-.1-.21-.23-.39-.38-.55-.5-2.31-.97-4.83-.63-7.18.62-4.38,4.51-5.23,8.04-4.65,4.68.76,8.16,3.99,9.78,8.36l-.03.33c0,.35.41.35.54.09.3.01.61-.22.5-.61-.07-.24-.16-.47-.24-.7,1.4-6.19,7.24-11.67,13.95-8.69Z"/>
            <path class="cls-5" d="M322.17,220.99c.25.1.28.37.15.53.04-.03.08-.06.14-.06,11.27-.53,22.59-1,33.88-1.19,0-.15.06-.29.22-.42,2.45-1.93,4.78-4.2,5.13-7.49.38-3.65-1.76-6.91-5.03-8.37-6.71-2.98-12.55,2.5-13.95,8.69.08.23.17.46.24.7.11.39-.2.62-.5.61-.13.26-.55.26-.54-.09l.03-.33c-1.62-4.37-5.1-7.6-9.78-8.36-3.53-.58-7.42.27-8.04,4.65-.34,2.35.13,4.87.63,7.18.15.16.28.34.38.55.2.45-.37,1-.73.57-.76-.9-2.23-1.39-3.16-.38-.91,1-.24,2.77.93,3.21ZM320.39,217.28c.79-1.06,2.47-1.33,3.66-.74-1.55-5.61-1.69-12.12,5.65-12.54,5.26-.31,10.34,2.87,12.55,7.56,1.55-6.48,7.98-11.48,14.87-8.66,3.04,1.24,5.29,4.09,5.81,7.33.69,4.27-1.9,7.62-5.01,10.16.09.18,0,.45-.26.47-.14,0-.28,0-.41.02-.12.03-.23.03-.34,0-11.46.56-22.98.83-34.45,1.03-.21,0-.26-.23-.17-.36-.07.06-.17.09-.29.06-1.84-.42-2.75-2.81-1.61-4.34Z"/>
          </g>
          <g class="cls-3">
            <path class="cls-1" d="M331.3,215.13c2.82-.69,5.44.2,7.83,1.65.17.1,2.38,1.58,3.58,2.42,1.03-.9-.05.42,1.11-.81.79-.84,1.91-3.31,2.76-4.74,2.59-4.35,5.72-7.54,10.03-9.69-6.69-2.93-12.5,2.54-13.89,8.71.08.23.17.46.24.7.11.39-.2.62-.5.61-.13.26-.55.26-.54-.09,0-.11.02-.22.03-.33-1.62-4.37-5.1-7.6-9.78-8.36-3.53-.58-7.42.27-8.04,4.65-.34,2.35.13,4.87.63,7.18.15.16.28.34.38.55.2.45-.37,1-.73.57-.76-.9-2.23-1.39-3.16-.38-.91,1-.24,2.77.93,3.21.25.1.28.37.15.53.04-.03.08-.06.14-.06.95-.04,1.91-.09,2.86-.13.6-2.89,2.31-5.3,5.98-6.2Z"/>
            <path class="cls-1" d="M325.33,221.33c-.95.04-1.91.08-2.86.13-.06,0-.1.03-.14.06.13-.16.1-.43-.15-.53-1.17-.44-1.84-2.21-.93-3.21.93-1.01,2.4-.52,3.16.38.36.43.93-.12.73-.57-.1-.21-.23-.39-.38-.55-.5-2.31-.97-4.83-.63-7.18.62-4.38,4.51-5.23,8.04-4.65,4.68.76,8.16,3.99,9.78,8.36,0,.11-.02.22-.03.33,0,.35.41.35.54.09.3.01.61-.22.5-.61-.07-.24-.16-.47-.24-.7,1.4-6.17,7.21-11.64,13.89-8.71.45-.22.92-.44,1.4-.64-.29-.16-.58-.31-.88-.43-6.89-2.82-13.32,2.18-14.87,8.66-2.21-4.69-7.29-7.87-12.55-7.56-7.34.42-7.2,6.93-5.65,12.54-1.19-.59-2.87-.32-3.66.74-1.14,1.53-.23,3.92,1.61,4.34.12.03.22,0,.29-.06-.09.13-.04.36.17.36.92-.02,1.85-.04,2.77-.05.03-.18.06-.36.09-.54Z"/>
          </g>
        </g>
        <g>
          <g>
            <path class="cls-2" d="M142.76,294.96c-.72,1.77-2.5,3.24-3.54,4.83-.06.1-.07.19-.06.28-.03-.23-.18-.44-.48-.43-18.43.38-36.88.81-55.29,1.59.16-.23.12-.62-.23-.75-1.82-.71-3.41-3.25-1.93-5.02,1.22-1.45,3.54-.97,4.36.58.24.45.92.13.8-.34-.11-.46-.32-.83-.6-1.13-4.36-7.09.34-14.78,8.42-15.76,6.43-.78,12.09,2.39,15.7,7.57.33.47,1.08.06.79-.47-.06-.1-.13-.2-.19-.3,0-.05,0-.09,0-.15-2.5-12.53,13.96-19.95,24.04-15.15,9.79,4.66,9.85,17.36,1.71,23.57-.58.45-.04,1.46.59,1.02.96-.66,1.8-1.41,2.55-2.22.2-.08.4-.16.61-.21,1.6-.37,3.53.56,2.75,2.49Z"/>
            <path class="cls-5" d="M142.76,294.96c.78-1.93-1.15-2.86-2.75-2.49-.21.05-.41.13-.61.21-.75.81-1.59,1.56-2.55,2.22-.63.44-1.17-.57-.59-1.02,8.14-6.21,8.08-18.91-1.71-23.57-10.08-4.8-26.54,2.62-24.04,15.15,0,.06,0,.1,0,.15.06.1.13.2.19.3.29.53-.46.94-.79.47-3.61-5.18-9.27-8.35-15.7-7.57-8.08.98-12.78,8.67-8.42,15.76.28.3.49.67.6,1.13.12.47-.56.79-.8.34-.82-1.55-3.14-2.03-4.36-.58-1.48,1.77.11,4.31,1.93,5.02.35.13.39.52.23.75,18.41-.78,36.86-1.21,55.29-1.59.3,0,.45.2.48.43,0-.09,0-.18.06-.28,1.04-1.59,2.82-3.06,3.54-4.83ZM143.51,292.66c.8,1.01.59,2.22-.04,3.25-.95,1.57-2.22,3.14-3.44,4.51-.29.32-.78.08-.87-.26,0,.24-.17.48-.48.49-18.57.54-37.15,1.03-55.73,1.16-.28,0-.34-.32-.19-.48-2.57-.78-4.35-4.37-2.36-6.6.89-1,2.55-1.38,3.91-1.02-3.13-5.67-.27-12.61,6-15.08,6.74-2.66,14.93-.13,19.24,5.57-2.23-12.15,14.35-19.17,24.35-15.46,9.79,3.65,12.09,15.39,6.38,22.88,1.17-.27,2.35-.08,3.23,1.04Z"/>
          </g>
          <g class="cls-3">
            <path class="cls-1" d="M91.06,300.94c.79-3.55,2.75-6.74,6.38-8.87,4.81-2.82,9.6-2.06,13.59.48,1.24-1.73,2.56-3.37,3.81-4.9,4.22-5.16,9.33-10.16,15.17-13.47,2.04-1.16,4.3-2.12,6.62-2.66-.64-.45-1.33-.86-2.08-1.22-10.08-4.8-26.54,2.62-24.04,15.15,0,.06,0,.1,0,.15.06.1.13.2.19.3.29.53-.46.94-.79.47-3.61-5.18-9.27-8.35-15.7-7.57-8.08.98-12.78,8.67-8.42,15.76.28.3.49.67.6,1.13.12.47-.56.79-.8.34-.82-1.55-3.14-2.03-4.36-.58-1.48,1.77.11,4.31,1.93,5.02.35.13.39.52.23.75,2.56-.11,5.12-.2,7.67-.29Z"/>
            <path class="cls-1" d="M91.06,300.94c-2.56.1-5.12.18-7.67.29.16-.23.12-.62-.23-.75-1.82-.71-3.41-3.25-1.93-5.02,1.22-1.45,3.54-.97,4.36.58.24.45.92.13.8-.34-.11-.46-.32-.83-.6-1.13-4.36-7.09.34-14.78,8.42-15.76,6.43-.78,12.09,2.39,15.7,7.57.33.47,1.08.06.79-.47-.06-.1-.13-.2-.19-.3,0-.05,0-.09,0-.15-2.5-12.53,13.96-19.95,24.04-15.15.75.36,1.44.77,2.08,1.22.52-.12,1.04-.22,1.56-.3-1.22-1.02-2.64-1.88-4.29-2.49-10-3.71-26.58,3.31-24.35,15.46-4.31-5.7-12.5-8.23-19.24-5.57-6.27,2.47-9.13,9.41-6,15.08-1.36-.36-3.02.02-3.91,1.02-1.99,2.23-.21,5.82,2.36,6.6-.15.16-.09.48.19.48,2.65-.02,5.3-.06,7.95-.09.04-.26.11-.52.16-.78Z"/>
          </g>
        </g>
        <g>
          <g>
            <path class="cls-2" d="M374.38,68.44c-.72,1.77-2.5,3.24-3.54,4.83-.06.1-.07.19-.06.28-.03-.23-.18-.44-.48-.43-18.43.38-36.88.81-55.29,1.59.16-.23.12-.62-.23-.75-1.82-.71-3.41-3.25-1.93-5.02,1.22-1.45,3.54-.97,4.36.58.24.45.92.13.8-.34-.11-.46-.32-.83-.6-1.13-4.36-7.09.34-14.78,8.42-15.76,6.43-.78,12.09,2.39,15.7,7.57.33.47,1.08.06.79-.47-.06-.1-.13-.2-.19-.3,0-.05,0-.09,0-.15-2.5-12.53,13.96-19.95,24.04-15.15,9.79,4.66,9.85,17.36,1.71,23.57-.58.45-.04,1.46.59,1.02.96-.66,1.8-1.41,2.55-2.22.2-.08.4-.16.61-.21,1.6-.37,3.53.56,2.75,2.49Z"/>
            <path class="cls-5" d="M374.38,68.44c.78-1.93-1.15-2.86-2.75-2.49-.21.05-.41.13-.61.21-.75.81-1.59,1.56-2.55,2.22-.63.44-1.17-.57-.59-1.02,8.14-6.21,8.08-18.91-1.71-23.57-10.08-4.8-26.54,2.62-24.04,15.15,0,.06,0,.1,0,.15.06.1.13.2.19.3.29.53-.46.94-.79.47-3.61-5.18-9.27-8.35-15.7-7.57-8.08.98-12.78,8.67-8.42,15.76.28.3.49.67.6,1.13.12.47-.56.79-.8.34-.82-1.55-3.14-2.03-4.36-.58-1.48,1.77.11,4.31,1.93,5.02.35.13.39.52.23.75,18.41-.78,36.86-1.21,55.29-1.59.3,0,.45.2.48.43,0-.09,0-.18.06-.28,1.04-1.59,2.82-3.06,3.54-4.83ZM375.13,66.14c.8,1.01.59,2.22-.04,3.25-.95,1.57-2.22,3.14-3.44,4.51-.29.32-.78.08-.87-.26,0,.24-.17.48-.48.49-18.57.54-37.15,1.03-55.73,1.16-.28,0-.34-.32-.19-.48-2.57-.78-4.35-4.37-2.36-6.6.89-1,2.55-1.38,3.91-1.02-3.13-5.67-.27-12.61,6-15.08,6.74-2.66,14.93-.13,19.24,5.57-2.23-12.15,14.35-19.17,24.35-15.46,9.79,3.65,12.09,15.39,6.38,22.88,1.17-.27,2.35-.08,3.23,1.04Z"/>
          </g>
          <g class="cls-3">
            <path class="cls-1" d="M322.68,74.42c.79-3.55,2.75-6.74,6.38-8.87,4.81-2.82,9.6-2.06,13.59.48,1.24-1.73,2.56-3.37,3.81-4.9,4.22-5.16,9.33-10.16,15.17-13.47,2.04-1.16,4.3-2.12,6.62-2.66-.64-.45-1.33-.86-2.08-1.22-10.08-4.8-26.54,2.62-24.04,15.15,0,.06,0,.1,0,.15.06.1.13.2.19.3.29.53-.46.94-.79.47-3.61-5.18-9.27-8.35-15.7-7.57-8.08.98-12.78,8.67-8.42,15.76.28.3.49.67.6,1.13.12.47-.56.79-.8.34-.82-1.55-3.14-2.03-4.36-.58-1.48,1.77.11,4.31,1.93,5.02.35.13.39.52.23.75,2.56-.11,5.12-.2,7.67-.29Z"/>
            <path class="cls-1" d="M322.68,74.42c-2.56.1-5.12.18-7.67.29.16-.23.12-.62-.23-.75-1.82-.71-3.41-3.25-1.93-5.02,1.22-1.45,3.54-.97,4.36.58.24.45.92.13.8-.34-.11-.46-.32-.83-.6-1.13-4.36-7.09.34-14.78,8.42-15.76,6.43-.78,12.09,2.39,15.7,7.57.33.47,1.08.06.79-.47-.06-.1-.13-.2-.19-.3,0-.05,0-.09,0-.15-2.5-12.53,13.96-19.95,24.04-15.15.75.36,1.44.77,2.08,1.22.52-.12,1.04-.22,1.56-.3-1.22-1.02-2.64-1.88-4.29-2.49-10-3.71-26.58,3.31-24.35,15.46-4.31-5.7-12.5-8.23-19.24-5.57-6.27,2.47-9.13,9.41-6,15.08-1.36-.36-3.02.02-3.91,1.02-1.99,2.23-.21,5.82,2.36,6.6-.15.16-.09.48.19.48,2.65-.02,5.3-.06,7.95-.09.04-.26.11-.52.16-.78Z"/>
          </g>
        </g>
      </g>
    </g>
  </g>
</svg>