<?xml version="1.0" encoding="UTF-8"?>
<svg xmlns="http://www.w3.org/2000/svg" viewBox="0 0 64.48 34.06">
  <defs>
    <style>
      .cls-1 {
        fill: #a7d8dd;
      }

      .cls-2 {
        fill: #fff;
      }

      .cls-3 {
        mix-blend-mode: multiply;
        opacity: .37;
      }

      .cls-4 {
        isolation: isolate;
      }

      .cls-5 {
        fill: #1d1e1b;
      }
    </style>
  </defs>
  <g class="cls-4">
    <g id="Layer_2" data-name="Layer 2">
      <g id="OBJECTS">
        <g>
          <g>
            <path class="cls-2" d="M63.21,27.21c-.72,1.77-2.5,3.24-3.54,4.83-.06.1-.07.19-.06.28-.03-.23-.18-.44-.48-.43-18.43.38-36.88.81-55.29,1.59.16-.23.12-.62-.23-.75-1.82-.71-3.41-3.25-1.93-5.02,1.22-1.45,3.54-.97,4.36.58.24.45.92.13.8-.34-.11-.46-.32-.83-.6-1.13-4.36-7.09.34-14.78,8.42-15.76,6.43-.78,12.09,2.39,15.7,7.57.33.47,1.08.06.79-.47-.06-.1-.13-.2-.19-.3,0-.05,0-.09,0-.15-2.5-12.53,13.96-19.95,24.04-15.15,9.79,4.66,9.85,17.36,1.71,23.57-.58.45-.04,1.46.59,1.02.96-.66,1.8-1.41,2.55-2.22.2-.08.4-.16.61-.21,1.6-.37,3.53.56,2.75,2.49Z"/>
            <path class="cls-5" d="M63.21,27.21c.78-1.93-1.15-2.86-2.75-2.49-.21.05-.41.13-.61.21-.75.81-1.59,1.56-2.55,2.22-.63.44-1.17-.57-.59-1.02,8.14-6.21,8.08-18.91-1.71-23.57-10.08-4.8-26.54,2.62-24.04,15.15,0,.06,0,.1,0,.15.06.1.13.2.19.3.29.53-.46.94-.79.47-3.61-5.18-9.27-8.35-15.7-7.57-8.08.98-12.78,8.67-8.42,15.76.28.3.49.67.6,1.13.12.47-.56.79-.8.34-.82-1.55-3.14-2.03-4.36-.58-1.48,1.77.11,4.31,1.93,5.02.35.13.39.52.23.75,18.41-.78,36.86-1.21,55.29-1.59.3-.01.45.2.48.43,0-.09,0-.18.06-.28,1.04-1.59,2.82-3.06,3.54-4.83ZM63.96,24.91c.8,1.01.59,2.22-.04,3.25-.95,1.57-2.22,3.14-3.44,4.51-.29.32-.78.08-.87-.26,0,.24-.17.48-.48.49-18.57.54-37.15,1.03-55.73,1.16-.28,0-.34-.32-.19-.48-2.57-.78-4.35-4.37-2.36-6.6.89-1,2.55-1.38,3.91-1.02-3.13-5.67-.27-12.61,6-15.08,6.74-2.66,14.93-.13,19.24,5.57C27.77,4.3,44.35-2.72,54.35.99c9.79,3.65,12.09,15.39,6.38,22.88,1.17-.27,2.35-.08,3.23,1.04Z"/>
          </g>
          <g class="cls-3">
            <path class="cls-1" d="M11.52,33.19c.79-3.55,2.75-6.74,6.38-8.87,4.81-2.82,9.6-2.06,13.59.48,1.24-1.73,2.56-3.37,3.81-4.9,4.22-5.16,9.33-10.16,15.17-13.47,2.04-1.16,4.3-2.12,6.62-2.66-.64-.45-1.33-.86-2.08-1.22-10.08-4.8-26.54,2.62-24.04,15.15,0,.06,0,.1,0,.15.06.1.13.2.19.3.29.53-.46.94-.79.47-3.61-5.18-9.27-8.35-15.7-7.57-8.08.98-12.78,8.67-8.42,15.76.28.3.49.67.6,1.13.12.47-.56.79-.8.34-.82-1.55-3.14-2.03-4.36-.58-1.48,1.77.11,4.31,1.93,5.02.35.13.39.52.23.75,2.56-.11,5.12-.2,7.67-.29Z"/>
            <path class="cls-1" d="M11.52,33.19c-2.56.1-5.12.18-7.67.29.16-.23.12-.62-.23-.75-1.82-.71-3.41-3.25-1.93-5.02,1.22-1.45,3.54-.97,4.36.58.24.45.92.13.8-.34-.11-.46-.32-.83-.6-1.13-4.36-7.09.34-14.78,8.42-15.76,6.43-.78,12.09,2.39,15.7,7.57.33.47,1.08.06.79-.47-.06-.1-.13-.2-.19-.3,0-.05,0-.09,0-.15-2.5-12.53,13.96-19.95,24.04-15.15.75.36,1.44.77,2.08,1.22.52-.12,1.04-.22,1.56-.3-1.22-1.02-2.64-1.88-4.29-2.49-10-3.71-26.58,3.31-24.35,15.46-4.31-5.7-12.5-8.23-19.24-5.57-6.27,2.47-9.13,9.41-6,15.08-1.36-.36-3.02.02-3.91,1.02-1.99,2.23-.21,5.82,2.36,6.6-.15.16-.09.48.19.48,2.65-.02,5.3-.06,7.95-.09.04-.26.11-.52.16-.78Z"/>
          </g>
        </g>
      </g>
    </g>
  </g>
</svg>